<svg xmlns="http://www.w3.org/2000/svg" version="1.1" xmlns:xlink="http://www.w3.org/1999/xlink" xmlns:svgjs="http://svgjs.dev/svgjs" width="1920" height="30" preserveAspectRatio="none" viewBox="0 0 1920 30"><g clip-path="url(&quot;#SvgjsClipPath1087&quot;)" fill="none"><rect width="1920" height="30" x="0" y="0" fill="#0a0a23"></rect><circle r="8.125" cx="1236" cy="12" fill="rgba(255, 255, 255, 0.65)" opacity="0.08" filter="blur(9px)"></circle><circle r="6.25" cx="1236" cy="12" fill="rgba(255, 255, 255, 0.65)" opacity="0.12" filter="blur(6px)"></circle><circle r="4.375" cx="1236" cy="12" fill="rgba(255, 255, 255, 0.65)" opacity="0.25" filter="blur(3px)"></circle><circle r="2.5" cx="1236" cy="12" fill="rgba(255, 255, 255, 0.65)" opacity="0.83" filter="drop-shadow(0 0 7.5px rgba(255, 255, 255, 0.65))"></circle><circle r="8.4" cx="1423" cy="17" fill="rgba(255, 255, 255, 0.65)" opacity="0.04" filter="blur(9px)"></circle><circle r="6.6" cx="1423" cy="17" fill="rgba(255, 255, 255, 0.65)" opacity="0.06" filter="blur(6px)"></circle><circle r="4.8" cx="1423" cy="17" fill="rgba(255, 255, 255, 0.65)" opacity="0.13" filter="blur(3px)"></circle><circle r="3" cx="1423" cy="17" fill="rgba(255, 255, 255, 0.65)" opacity="0.43" filter="drop-shadow(0 0 7.2px rgba(255, 255, 255, 0.65))"></circle><circle r="6.2" cx="920" cy="13" fill="rgba(255, 255, 255, 0.65)" opacity="0.05" filter="blur(9px)"></circle><circle r="4.8" cx="920" cy="13" fill="rgba(255, 255, 255, 0.65)" opacity="0.08" filter="blur(6px)"></circle><circle r="3.4" cx="920" cy="13" fill="rgba(255, 255, 255, 0.65)" opacity="0.15" filter="blur(3px)"></circle><circle r="2" cx="920" cy="13" fill="rgba(255, 255, 255, 0.65)" opacity="0.51" filter="drop-shadow(0 0 5.6px rgba(255, 255, 255, 0.65))"></circle><circle r="2.8" cx="1149" cy="10" fill="rgba(255, 255, 255, 0.65)" opacity="0.06" filter="blur(9px)"></circle><circle r="2.2" cx="1149" cy="10" fill="rgba(255, 255, 255, 0.65)" opacity="0.09" filter="blur(6px)"></circle><circle r="1.6" cx="1149" cy="10" fill="rgba(255, 255, 255, 0.65)" opacity="0.18" filter="blur(3px)"></circle><circle r="1" cx="1149" cy="10" fill="rgba(255, 255, 255, 0.65)" opacity="0.61" filter="drop-shadow(0 0 2.4px rgba(255, 255, 255, 0.65))"></circle><circle r="4.65" cx="292" cy="10" fill="rgba(255, 255, 255, 0.65)" opacity="0.08" filter="blur(9px)"></circle><circle r="3.6" cx="292" cy="10" fill="rgba(255, 255, 255, 0.65)" opacity="0.12" filter="blur(6px)"></circle><circle r="2.55" cx="292" cy="10" fill="rgba(255, 255, 255, 0.65)" opacity="0.23" filter="blur(3px)"></circle><circle r="1.5" cx="292" cy="10" fill="rgba(255, 255, 255, 0.65)" opacity="0.78" filter="drop-shadow(0 0 4.2px rgba(255, 255, 255, 0.65))"></circle><circle r="7.75" cx="1313" cy="16" fill="rgba(255, 255, 255, 0.65)" opacity="0.08" filter="blur(9px)"></circle><circle r="6" cx="1313" cy="16" fill="rgba(255, 255, 255, 0.65)" opacity="0.12" filter="blur(6px)"></circle><circle r="4.25" cx="1313" cy="16" fill="rgba(255, 255, 255, 0.65)" opacity="0.25" filter="blur(3px)"></circle><circle r="2.5" cx="1313" cy="16" fill="rgba(255, 255, 255, 0.65)" opacity="0.82" filter="drop-shadow(0 0 7px rgba(255, 255, 255, 0.65))"></circle><circle r="7.75" cx="165" cy="17" fill="rgba(255, 255, 255, 0.65)" opacity="0.09" filter="blur(9px)"></circle><circle r="6" cx="165" cy="17" fill="rgba(255, 255, 255, 0.65)" opacity="0.14" filter="blur(6px)"></circle><circle r="4.25" cx="165" cy="17" fill="rgba(255, 255, 255, 0.65)" opacity="0.27" filter="blur(3px)"></circle><circle r="2.5" cx="165" cy="17" fill="rgba(255, 255, 255, 0.65)" opacity="0.9" filter="drop-shadow(0 0 7px rgba(255, 255, 255, 0.65))"></circle><circle r="7" cx="1105" cy="10" fill="rgba(255, 255, 255, 0.65)" opacity="0.06" filter="blur(9px)"></circle><circle r="5.5" cx="1105" cy="10" fill="rgba(255, 255, 255, 0.65)" opacity="0.09" filter="blur(6px)"></circle><circle r="4" cx="1105" cy="10" fill="rgba(255, 255, 255, 0.65)" opacity="0.18" filter="blur(3px)"></circle><circle r="2.5" cx="1105" cy="10" fill="rgba(255, 255, 255, 0.65)" opacity="0.6" filter="drop-shadow(0 0 6px rgba(255, 255, 255, 0.65))"></circle><circle r="7" cx="1031" cy="19" fill="rgba(255, 255, 255, 0.65)" opacity="0.05" filter="blur(9px)"></circle><circle r="5.5" cx="1031" cy="19" fill="rgba(255, 255, 255, 0.65)" opacity="0.08" filter="blur(6px)"></circle><circle r="4" cx="1031" cy="19" fill="rgba(255, 255, 255, 0.65)" opacity="0.16" filter="blur(3px)"></circle><circle r="2.5" cx="1031" cy="19" fill="rgba(255, 255, 255, 0.65)" opacity="0.54" filter="drop-shadow(0 0 6px rgba(255, 255, 255, 0.65))"></circle><circle r="2.5" cx="563" cy="20" fill="rgba(255, 255, 255, 0.65)" opacity="0.09" filter="blur(9px)"></circle><circle r="2" cx="563" cy="20" fill="rgba(255, 255, 255, 0.65)" opacity="0.14" filter="blur(6px)"></circle><circle r="1.5" cx="563" cy="20" fill="rgba(255, 255, 255, 0.65)" opacity="0.28" filter="blur(3px)"></circle><circle r="1" cx="563" cy="20" fill="rgba(255, 255, 255, 0.65)" opacity="0.93" filter="drop-shadow(0 0 2px rgba(255, 255, 255, 0.65))"></circle><circle r="4.425" cx="1421" cy="13" fill="rgba(255, 255, 255, 0.65)" opacity="0.09" filter="blur(9px)"></circle><circle r="3.45" cx="1421" cy="13" fill="rgba(255, 255, 255, 0.65)" opacity="0.14" filter="blur(6px)"></circle><circle r="2.475" cx="1421" cy="13" fill="rgba(255, 255, 255, 0.65)" opacity="0.28" filter="blur(3px)"></circle><circle r="1.5" cx="1421" cy="13" fill="rgba(255, 255, 255, 0.65)" opacity="0.95" filter="drop-shadow(0 0 3.9px rgba(255, 255, 255, 0.65))"></circle><circle r="2.8" cx="244" cy="17" fill="rgba(255, 255, 255, 0.65)" opacity="0.06" filter="blur(9px)"></circle><circle r="2.2" cx="244" cy="17" fill="rgba(255, 255, 255, 0.65)" opacity="0.1" filter="blur(6px)"></circle><circle r="1.6" cx="244" cy="17" fill="rgba(255, 255, 255, 0.65)" opacity="0.19" filter="blur(3px)"></circle><circle r="1" cx="244" cy="17" fill="rgba(255, 255, 255, 0.65)" opacity="0.64" filter="drop-shadow(0 0 2.4px rgba(255, 255, 255, 0.65))"></circle><circle r="7.375" cx="406" cy="18" fill="rgba(255, 255, 255, 0.65)" opacity="0.09" filter="blur(9px)"></circle><circle r="5.75" cx="406" cy="18" fill="rgba(255, 255, 255, 0.65)" opacity="0.14" filter="blur(6px)"></circle><circle r="4.125" cx="406" cy="18" fill="rgba(255, 255, 255, 0.65)" opacity="0.27" filter="blur(3px)"></circle><circle r="2.5" cx="406" cy="18" fill="rgba(255, 255, 255, 0.65)" opacity="0.9" filter="drop-shadow(0 0 6.5px rgba(255, 255, 255, 0.65))"></circle><circle r="4.2" cx="1261" cy="9" fill="rgba(255, 255, 255, 0.65)" opacity="0.1" filter="blur(9px)"></circle><circle r="3.3" cx="1261" cy="9" fill="rgba(255, 255, 255, 0.65)" opacity="0.15" filter="blur(6px)"></circle><circle r="2.4" cx="1261" cy="9" fill="rgba(255, 255, 255, 0.65)" opacity="0.29" filter="blur(3px)"></circle><circle r="1.5" cx="1261" cy="9" fill="rgba(255, 255, 255, 0.65)" opacity="0.97" filter="drop-shadow(0 0 3.6px rgba(255, 255, 255, 0.65))"></circle><circle r="7.95" cx="1771" cy="18" fill="rgba(255, 255, 255, 0.65)" opacity="0.04" filter="blur(9px)"></circle><circle r="6.3" cx="1771" cy="18" fill="rgba(255, 255, 255, 0.65)" opacity="0.06" filter="blur(6px)"></circle><circle r="4.65" cx="1771" cy="18" fill="rgba(255, 255, 255, 0.65)" opacity="0.12" filter="blur(3px)"></circle><circle r="3" cx="1771" cy="18" fill="rgba(255, 255, 255, 0.65)" opacity="0.41" filter="drop-shadow(0 0 6.6px rgba(255, 255, 255, 0.65))"></circle><circle r="3.975" cx="1697" cy="23" fill="rgba(255, 255, 255, 0.65)" opacity="0.09" filter="blur(9px)"></circle><circle r="3.15" cx="1697" cy="23" fill="rgba(255, 255, 255, 0.65)" opacity="0.14" filter="blur(6px)"></circle><circle r="2.325" cx="1697" cy="23" fill="rgba(255, 255, 255, 0.65)" opacity="0.27" filter="blur(3px)"></circle><circle r="1.5" cx="1697" cy="23" fill="rgba(255, 255, 255, 0.65)" opacity="0.9" filter="drop-shadow(0 0 3.3px rgba(255, 255, 255, 0.65))"></circle><circle r="3.25" cx="1279" cy="20" fill="rgba(255, 255, 255, 0.65)" opacity="0.08" filter="blur(9px)"></circle><circle r="2.5" cx="1279" cy="20" fill="rgba(255, 255, 255, 0.65)" opacity="0.12" filter="blur(6px)"></circle><circle r="1.75" cx="1279" cy="20" fill="rgba(255, 255, 255, 0.65)" opacity="0.24" filter="blur(3px)"></circle><circle r="1" cx="1279" cy="20" fill="rgba(255, 255, 255, 0.65)" opacity="0.81" filter="drop-shadow(0 0 3px rgba(255, 255, 255, 0.65))"></circle><circle r="5" cx="1738" cy="12" fill="rgba(255, 255, 255, 0.65)" opacity="0.08" filter="blur(9px)"></circle><circle r="4" cx="1738" cy="12" fill="rgba(255, 255, 255, 0.65)" opacity="0.12" filter="blur(6px)"></circle><circle r="3" cx="1738" cy="12" fill="rgba(255, 255, 255, 0.65)" opacity="0.25" filter="blur(3px)"></circle><circle r="2" cx="1738" cy="12" fill="rgba(255, 255, 255, 0.65)" opacity="0.82" filter="drop-shadow(0 0 4px rgba(255, 255, 255, 0.65))"></circle><circle r="2.95" cx="1471" cy="13" fill="rgba(255, 255, 255, 0.65)" opacity="0.1" filter="blur(9px)"></circle><circle r="2.3" cx="1471" cy="13" fill="rgba(255, 255, 255, 0.65)" opacity="0.14" filter="blur(6px)"></circle><circle r="1.65" cx="1471" cy="13" fill="rgba(255, 255, 255, 0.65)" opacity="0.29" filter="blur(3px)"></circle><circle r="1" cx="1471" cy="13" fill="rgba(255, 255, 255, 0.65)" opacity="0.96" filter="drop-shadow(0 0 2.6px rgba(255, 255, 255, 0.65))"></circle><circle r="6.5" cx="1311" cy="13" fill="rgba(255, 255, 255, 0.65)" opacity="0.1" filter="blur(9px)"></circle><circle r="5" cx="1311" cy="13" fill="rgba(255, 255, 255, 0.65)" opacity="0.15" filter="blur(6px)"></circle><circle r="3.5" cx="1311" cy="13" fill="rgba(255, 255, 255, 0.65)" opacity="0.3" filter="blur(3px)"></circle><circle r="2" cx="1311" cy="13" fill="rgba(255, 255, 255, 0.65)" opacity="0.99" filter="drop-shadow(0 0 6px rgba(255, 255, 255, 0.65))"></circle><circle r="7.75" cx="94" cy="13" fill="rgba(255, 255, 255, 0.65)" opacity="0.08" filter="blur(9px)"></circle><circle r="6" cx="94" cy="13" fill="rgba(255, 255, 255, 0.65)" opacity="0.12" filter="blur(6px)"></circle><circle r="4.25" cx="94" cy="13" fill="rgba(255, 255, 255, 0.65)" opacity="0.24" filter="blur(3px)"></circle><circle r="2.5" cx="94" cy="13" fill="rgba(255, 255, 255, 0.65)" opacity="0.81" filter="drop-shadow(0 0 7px rgba(255, 255, 255, 0.65))"></circle><circle r="3.975" cx="1912" cy="22" fill="rgba(255, 255, 255, 0.65)" opacity="0.04" filter="blur(9px)"></circle><circle r="3.15" cx="1912" cy="22" fill="rgba(255, 255, 255, 0.65)" opacity="0.06" filter="blur(6px)"></circle><circle r="2.325" cx="1912" cy="22" fill="rgba(255, 255, 255, 0.65)" opacity="0.13" filter="blur(3px)"></circle><circle r="1.5" cx="1912" cy="22" fill="rgba(255, 255, 255, 0.65)" opacity="0.43" filter="drop-shadow(0 0 3.3px rgba(255, 255, 255, 0.65))"></circle><circle r="3.975" cx="1607" cy="20" fill="rgba(255, 255, 255, 0.65)" opacity="0.1" filter="blur(9px)"></circle><circle r="3.15" cx="1607" cy="20" fill="rgba(255, 255, 255, 0.65)" opacity="0.15" filter="blur(6px)"></circle><circle r="2.325" cx="1607" cy="20" fill="rgba(255, 255, 255, 0.65)" opacity="0.29" filter="blur(3px)"></circle><circle r="1.5" cx="1607" cy="20" fill="rgba(255, 255, 255, 0.65)" opacity="0.98" filter="drop-shadow(0 0 3.3px rgba(255, 255, 255, 0.65))"></circle><circle r="9.75" cx="1069" cy="16" fill="rgba(255, 255, 255, 0.65)" opacity="0.09" filter="blur(9px)"></circle><circle r="7.5" cx="1069" cy="16" fill="rgba(255, 255, 255, 0.65)" opacity="0.14" filter="blur(6px)"></circle><circle r="5.25" cx="1069" cy="16" fill="rgba(255, 255, 255, 0.65)" opacity="0.27" filter="blur(3px)"></circle><circle r="3" cx="1069" cy="16" fill="rgba(255, 255, 255, 0.65)" opacity="0.9" filter="drop-shadow(0 0 9px rgba(255, 255, 255, 0.65))"></circle><circle r="2.65" cx="1256" cy="8" fill="rgba(255, 255, 255, 0.65)" opacity="0.09" filter="blur(9px)"></circle><circle r="2.1" cx="1256" cy="8" fill="rgba(255, 255, 255, 0.65)" opacity="0.13" filter="blur(6px)"></circle><circle r="1.55" cx="1256" cy="8" fill="rgba(255, 255, 255, 0.65)" opacity="0.26" filter="blur(3px)"></circle><circle r="1" cx="1256" cy="8" fill="rgba(255, 255, 255, 0.65)" opacity="0.87" filter="drop-shadow(0 0 2.2px rgba(255, 255, 255, 0.65))"></circle><circle r="9.75" cx="1099" cy="15" fill="rgba(255, 255, 255, 0.65)" opacity="0.09" filter="blur(9px)"></circle><circle r="7.5" cx="1099" cy="15" fill="rgba(255, 255, 255, 0.65)" opacity="0.14" filter="blur(6px)"></circle><circle r="5.25" cx="1099" cy="15" fill="rgba(255, 255, 255, 0.65)" opacity="0.28" filter="blur(3px)"></circle><circle r="3" cx="1099" cy="15" fill="rgba(255, 255, 255, 0.65)" opacity="0.95" filter="drop-shadow(0 0 9px rgba(255, 255, 255, 0.65))"></circle><circle r="6.2" cx="714" cy="15" fill="rgba(255, 255, 255, 0.65)" opacity="0.09" filter="blur(9px)"></circle><circle r="4.8" cx="714" cy="15" fill="rgba(255, 255, 255, 0.65)" opacity="0.13" filter="blur(6px)"></circle><circle r="3.4" cx="714" cy="15" fill="rgba(255, 255, 255, 0.65)" opacity="0.26" filter="blur(3px)"></circle><circle r="2" cx="714" cy="15" fill="rgba(255, 255, 255, 0.65)" opacity="0.85" filter="drop-shadow(0 0 5.6px rgba(255, 255, 255, 0.65))"></circle><circle r="5.6" cx="1109" cy="9" fill="rgba(255, 255, 255, 0.65)" opacity="0.05" filter="blur(9px)"></circle><circle r="4.4" cx="1109" cy="9" fill="rgba(255, 255, 255, 0.65)" opacity="0.07" filter="blur(6px)"></circle><circle r="3.2" cx="1109" cy="9" fill="rgba(255, 255, 255, 0.65)" opacity="0.14" filter="blur(3px)"></circle><circle r="2" cx="1109" cy="9" fill="rgba(255, 255, 255, 0.65)" opacity="0.47" filter="drop-shadow(0 0 4.8px rgba(255, 255, 255, 0.65))"></circle><circle r="5.6" cx="48" cy="16" fill="rgba(255, 255, 255, 0.65)" opacity="0.08" filter="blur(9px)"></circle><circle r="4.4" cx="48" cy="16" fill="rgba(255, 255, 255, 0.65)" opacity="0.12" filter="blur(6px)"></circle><circle r="3.2" cx="48" cy="16" fill="rgba(255, 255, 255, 0.65)" opacity="0.25" filter="blur(3px)"></circle><circle r="2" cx="48" cy="16" fill="rgba(255, 255, 255, 0.65)" opacity="0.82" filter="drop-shadow(0 0 4.8px rgba(255, 255, 255, 0.65))"></circle><circle r="2.8" cx="1255" cy="6" fill="rgba(255, 255, 255, 0.65)" opacity="0.07" filter="blur(9px)"></circle><circle r="2.2" cx="1255" cy="6" fill="rgba(255, 255, 255, 0.65)" opacity="0.1" filter="blur(6px)"></circle><circle r="1.6" cx="1255" cy="6" fill="rgba(255, 255, 255, 0.65)" opacity="0.2" filter="blur(3px)"></circle><circle r="1" cx="1255" cy="6" fill="rgba(255, 255, 255, 0.65)" opacity="0.65" filter="drop-shadow(0 0 2.4px rgba(255, 255, 255, 0.65))"></circle><circle r="4.875" cx="1134" cy="18" fill="rgba(255, 255, 255, 0.65)" opacity="0.06" filter="blur(9px)"></circle><circle r="3.75" cx="1134" cy="18" fill="rgba(255, 255, 255, 0.65)" opacity="0.09" filter="blur(6px)"></circle><circle r="2.625" cx="1134" cy="18" fill="rgba(255, 255, 255, 0.65)" opacity="0.17" filter="blur(3px)"></circle><circle r="1.5" cx="1134" cy="18" fill="rgba(255, 255, 255, 0.65)" opacity="0.57" filter="drop-shadow(0 0 4.5px rgba(255, 255, 255, 0.65))"></circle><circle r="7" cx="125" cy="17" fill="rgba(255, 255, 255, 0.65)" opacity="0.09" filter="blur(9px)"></circle><circle r="5.5" cx="125" cy="17" fill="rgba(255, 255, 255, 0.65)" opacity="0.13" filter="blur(6px)"></circle><circle r="4" cx="125" cy="17" fill="rgba(255, 255, 255, 0.65)" opacity="0.26" filter="blur(3px)"></circle><circle r="2.5" cx="125" cy="17" fill="rgba(255, 255, 255, 0.65)" opacity="0.86" filter="drop-shadow(0 0 6px rgba(255, 255, 255, 0.65))"></circle><circle r="5.6" cx="1129" cy="13" fill="rgba(255, 255, 255, 0.65)" opacity="0.09" filter="blur(9px)"></circle><circle r="4.4" cx="1129" cy="13" fill="rgba(255, 255, 255, 0.65)" opacity="0.13" filter="blur(6px)"></circle><circle r="3.2" cx="1129" cy="13" fill="rgba(255, 255, 255, 0.65)" opacity="0.26" filter="blur(3px)"></circle><circle r="2" cx="1129" cy="13" fill="rgba(255, 255, 255, 0.65)" opacity="0.85" filter="drop-shadow(0 0 4.8px rgba(255, 255, 255, 0.65))"></circle><circle r="7" cx="1447" cy="12" fill="rgba(255, 255, 255, 0.65)" opacity="0.09" filter="blur(9px)"></circle><circle r="5.5" cx="1447" cy="12" fill="rgba(255, 255, 255, 0.65)" opacity="0.13" filter="blur(6px)"></circle><circle r="4" cx="1447" cy="12" fill="rgba(255, 255, 255, 0.65)" opacity="0.26" filter="blur(3px)"></circle><circle r="2.5" cx="1447" cy="12" fill="rgba(255, 255, 255, 0.65)" opacity="0.86" filter="drop-shadow(0 0 6px rgba(255, 255, 255, 0.65))"></circle><circle r="4.425" cx="314" cy="6" fill="rgba(255, 255, 255, 0.65)" opacity="0.06" filter="blur(9px)"></circle><circle r="3.45" cx="314" cy="6" fill="rgba(255, 255, 255, 0.65)" opacity="0.09" filter="blur(6px)"></circle><circle r="2.475" cx="314" cy="6" fill="rgba(255, 255, 255, 0.65)" opacity="0.18" filter="blur(3px)"></circle><circle r="1.5" cx="314" cy="6" fill="rgba(255, 255, 255, 0.65)" opacity="0.61" filter="drop-shadow(0 0 3.9px rgba(255, 255, 255, 0.65))"></circle><circle r="4.2" cx="1031" cy="14" fill="rgba(255, 255, 255, 0.65)" opacity="0.08" filter="blur(9px)"></circle><circle r="3.3" cx="1031" cy="14" fill="rgba(255, 255, 255, 0.65)" opacity="0.12" filter="blur(6px)"></circle><circle r="2.4" cx="1031" cy="14" fill="rgba(255, 255, 255, 0.65)" opacity="0.24" filter="blur(3px)"></circle><circle r="1.5" cx="1031" cy="14" fill="rgba(255, 255, 255, 0.65)" opacity="0.79" filter="drop-shadow(0 0 3.6px rgba(255, 255, 255, 0.65))"></circle><circle r="3.975" cx="1148" cy="20" fill="rgba(255, 255, 255, 0.65)" opacity="0.06" filter="blur(9px)"></circle><circle r="3.15" cx="1148" cy="20" fill="rgba(255, 255, 255, 0.65)" opacity="0.08" filter="blur(6px)"></circle><circle r="2.325" cx="1148" cy="20" fill="rgba(255, 255, 255, 0.65)" opacity="0.17" filter="blur(3px)"></circle><circle r="1.5" cx="1148" cy="20" fill="rgba(255, 255, 255, 0.65)" opacity="0.55" filter="drop-shadow(0 0 3.3px rgba(255, 255, 255, 0.65))"></circle><circle r="5.6" cx="514" cy="15" fill="rgba(255, 255, 255, 0.65)" opacity="0.07" filter="blur(9px)"></circle><circle r="4.4" cx="514" cy="15" fill="rgba(255, 255, 255, 0.65)" opacity="0.11" filter="blur(6px)"></circle><circle r="3.2" cx="514" cy="15" fill="rgba(255, 255, 255, 0.65)" opacity="0.22" filter="blur(3px)"></circle><circle r="2" cx="514" cy="15" fill="rgba(255, 255, 255, 0.65)" opacity="0.73" filter="drop-shadow(0 0 4.8px rgba(255, 255, 255, 0.65))"></circle><circle r="4.425" cx="518" cy="22" fill="rgba(255, 255, 255, 0.65)" opacity="0.05" filter="blur(9px)"></circle><circle r="3.45" cx="518" cy="22" fill="rgba(255, 255, 255, 0.65)" opacity="0.07" filter="blur(6px)"></circle><circle r="2.475" cx="518" cy="22" fill="rgba(255, 255, 255, 0.65)" opacity="0.14" filter="blur(3px)"></circle><circle r="1.5" cx="518" cy="22" fill="rgba(255, 255, 255, 0.65)" opacity="0.45" filter="drop-shadow(0 0 3.9px rgba(255, 255, 255, 0.65))"></circle><circle r="9.75" cx="585" cy="13" fill="rgba(255, 255, 255, 0.65)" opacity="0.07" filter="blur(9px)"></circle><circle r="7.5" cx="585" cy="13" fill="rgba(255, 255, 255, 0.65)" opacity="0.11" filter="blur(6px)"></circle><circle r="5.25" cx="585" cy="13" fill="rgba(255, 255, 255, 0.65)" opacity="0.22" filter="blur(3px)"></circle><circle r="3" cx="585" cy="13" fill="rgba(255, 255, 255, 0.65)" opacity="0.73" filter="drop-shadow(0 0 9px rgba(255, 255, 255, 0.65))"></circle></g><defs><clipPath id="SvgjsClipPath1087"><rect width="1920" height="30" x="0" y="0"></rect></clipPath></defs></svg>