<svg xmlns="http://www.w3.org/2000/svg" version="1.1" xmlns:xlink="http://www.w3.org/1999/xlink" xmlns:svgjs="http://svgjs.dev/svgjs" width="1920" height="30" preserveAspectRatio="none" viewBox="0 0 1920 30"><g mask="url(&quot;#SvgjsMask1042&quot;)" fill="none"><rect width="1920" height="30" x="0" y="0" fill="#0e2a47"></rect><path d="M15 30L45 0L472.5 0L442.5 30z" fill="url(&quot;#SvgjsLinearGradient1043&quot;)"></path><path d="M326.8 30L356.8 0L451.3 0L421.3 30z" fill="url(&quot;#SvgjsLinearGradient1043&quot;)"></path><path d="M639.6 30L669.6 0L813.6 0L783.6 30z" fill="url(&quot;#SvgjsLinearGradient1043&quot;)"></path><path d="M958.4000000000001 30L988.4000000000001 0L1235.9 0L1205.9 30z" fill="url(&quot;#SvgjsLinearGradient1043&quot;)"></path><path d="M1862 30L1832 0L1607 0L1637 30z" fill="url(&quot;#SvgjsLinearGradient1044&quot;)"></path><path d="M1596.2 30L1566.2 0L1093.7 0L1123.7 30z" fill="url(&quot;#SvgjsLinearGradient1044&quot;)"></path><path d="M1243.4 30L1213.4 0L1069.4 0L1099.4 30z" fill="url(&quot;#SvgjsLinearGradient1044&quot;)"></path><path d="M953.5999999999999 30L923.5999999999999 0L589.0999999999999 0L619.0999999999999 30z" fill="url(&quot;#SvgjsLinearGradient1044&quot;)"></path><path d="M1891.5491268623823 30L1920 1.5491268623822023L1920 30z" fill="url(&quot;#SvgjsLinearGradient1043&quot;)"></path><path d="M0 30L28.450873137617798 30L 0 1.5491268623822023z" fill="url(&quot;#SvgjsLinearGradient1044&quot;)"></path></g><defs><mask id="SvgjsMask1042"><rect width="1920" height="30" fill="#ffffff"></rect></mask><linearGradient x1="0%" y1="100%" x2="100%" y2="0%" id="SvgjsLinearGradient1043"><stop stop-color="rgba(15, 70, 185, 0.54)" offset="0"></stop><stop stop-opacity="0" stop-color="rgba(15, 70, 185, 0.54)" offset="0.66"></stop></linearGradient><linearGradient x1="100%" y1="100%" x2="0%" y2="0%" id="SvgjsLinearGradient1044"><stop stop-color="rgba(15, 70, 185, 0.54)" offset="0"></stop><stop stop-opacity="0" stop-color="rgba(15, 70, 185, 0.54)" offset="0.66"></stop></linearGradient></defs></svg>