<svg class="border shadow-md dark:border-slate-700" viewBox="0 0 706.64 397.485" style="width: 706.64px; height: 397.485px;" xmlns="http://www.w3.org/2000/svg" preserveAspectRatio="none"><rect class="bg" id="bg" x="0" y="0" width="706.64" height="397.485" fill="#ffffff"/><g transform="rotate(0 353.32 198.7425)"><path id="-1" d="M -453.32 -69.37 S -250.00 -146.37&#xA;            0.00 -69.37 216.66 -137.37&#xA;            453.32 -69.37 500.64 -119.06&#xA;            906.64 -69.37 1123.30 -119.06&#xA;            1359.96 -69.37 h 110 V 597.485 H -453.32 Z" fill="#FFFFFF"/><path id="0" d="M -453.32 30.00 S -253.00 -45.00&#xA;            0.00 30.00 81.32 -19.69&#xA;            453.32 30.00 648.64 -26.00&#xA;            906.64 30.00 1123.30 -19.69&#xA;            1359.96 30.00 h 110 V 597.485 H -453.32 Z" fill="#cccccc"/><path id="1" d="M -453.32 129.37 S -419.00 79.69&#xA;            0.00 129.37 216.66 54.37&#xA;            453.32 129.37 669.98 63.37&#xA;            906.64 129.37 1123.30 40.37&#xA;            1359.96 129.37 h 110 V 597.485 H -453.32 Z" fill="#999999"/><path id="2" d="M -453.32 228.74 S -285.00 179.06&#xA;            0.00 228.74 145.32 179.06&#xA;            453.32 228.74 669.98 179.06&#xA;            906.64 228.74 974.96 162.74&#xA;            1359.96 228.74 h 110 V 597.485 H -453.32 Z" fill="#666666"/><path id="3" d="M -453.32 328.11 S -236.66 237.11&#xA;            0.00 328.11 205.32 278.43&#xA;            453.32 328.11 669.98 257.11&#xA;            906.64 328.11 1123.30 278.43&#xA;            1359.96 328.11 h 110 V 597.485 H -453.32 Z" fill="#333333"/></g></svg>