<svg xmlns="http://www.w3.org/2000/svg" version="1.1" xmlns:xlink="http://www.w3.org/1999/xlink" xmlns:svgjs="http://svgjs.dev/svgjs" width="1920" height="40" preserveAspectRatio="none" viewBox="0 0 1920 40"><g mask="url(&quot;#SvgjsMask1086&quot;)" fill="none"><path d="M 0,0 C 42.8,2.6 128.4,11.4 214,13 C 299.6,14.6 342.4,7.8 428,8 C 513.6,8.2 556.4,14 642,14 C 727.6,14 770.4,8 856,8 C 941.6,8 984.4,15.2 1070,14 C 1155.6,12.8 1198.4,1.2 1284,2 C 1369.6,2.8 1412.4,17.4 1498,18 C 1583.6,18.6 1627.6,5 1712,5 C 1796.4,5 1878.4,15.4 1920,18L1920 40L0 40z" fill="rgba(185, 185, 185, 1)"></path><path d="M 0,28 C 384,29.8 1536,35.2 1920,37L1920 40L0 40z" fill="rgba(255, 255, 255, 1)"></path></g><defs><mask id="SvgjsMask1086"><rect width="1920" height="40" fill="#ffffff"></rect></mask></defs></svg>